<?xml version="1.0" standalone="no"?>
<!DOCTYPE svg PUBLIC "-//W3C//DTD SVG 20010904//EN"
 "http://www.w3.org/TR/2001/REC-SVG-20010904/DTD/svg10.dtd">
<svg version="1.0" xmlns="http://www.w3.org/2000/svg"
 width="512.000000pt" height="512.000000pt" viewBox="0 0 512.000000 512.000000"
 preserveAspectRatio="xMidYMid meet">

<g transform="translate(0.000000,512.000000) scale(0.100000,-0.100000)"
fill="#fff" stroke="none">
<path d="M3112 4789 c-290 -39 -584 -176 -802 -372 l-42 -39 23 -16 c107 -75
238 -219 316 -348 50 -83 100 -202 131 -314 24 -87 26 -111 26 -285 0 -174 -2
-198 -27 -288 -81 -303 -275 -565 -525 -712 l-73 -43 56 -62 c429 -481 1136
-630 1723 -364 l74 34 126 -37 c159 -47 261 -51 332 -14 75 39 115 77 148 140
48 88 50 146 14 316 l-30 139 64 131 c113 232 161 454 151 705 -27 694 -512
1266 -1195 1410 -114 24 -376 34 -490 19z m386 -816 c123 -91 78 -273 -70
-290 -167 -19 -238 210 -92 295 48 28 121 26 162 -5z m146 -482 c35 -33 44
-85 21 -126 -20 -39 -52 -55 -105 -55 l-40 0 0 -320 0 -320 55 0 c100 0 155
-39 155 -110 0 -45 -23 -78 -66 -96 -51 -21 -463 -20 -509 2 -31 14 -65 64
-65 94 0 7 7 27 16 45 21 44 67 65 143 65 l61 0 -2 318 -3 317 -54 5 c-42 5
-58 12 -77 33 -41 48 -29 127 24 160 23 15 53 17 224 15 192 -3 197 -4 222
-27z"/>
<path d="M1411 4355 c-352 -79 -620 -320 -724 -650 -109 -347 -18 -717 240
-973 124 -123 266 -203 443 -249 130 -34 314 -36 443 -5 184 45 338 130 463
256 459 462 340 1233 -237 1531 -142 74 -238 97 -414 101 -106 3 -169 -1 -214
-11z"/>
<path d="M1308 2224 c-508 -79 -914 -499 -978 -1014 -7 -60 -10 -198 -8 -375
3 -267 4 -282 26 -325 35 -72 75 -114 144 -151 l63 -34 1045 0 1045 0 63 34
c70 38 100 69 140 145 l27 51 3 280 c2 176 -1 315 -8 375 -65 519 -471 937
-987 1015 -124 19 -454 18 -575 -1z"/>
</g>
</svg>
