<?xml version="1.0" standalone="no"?>
<!DOCTYPE svg PUBLIC "-//W3C//DTD SVG 20010904//EN"
 "http://www.w3.org/TR/2001/REC-SVG-20010904/DTD/svg10.dtd">
<svg version="1.0" xmlns="http://www.w3.org/2000/svg"
 width="560.000000pt" height="560.000000pt" viewBox="0 0 560.000000 560.000000"
 preserveAspectRatio="xMidYMid meet">

<g transform="translate(0.000000,560.000000) scale(0.100000,-0.100000)"
fill="#fff" stroke="none">
<path d="M3651 4434 c-92 -25 -162 -70 -256 -164 l-90 -90 95 -98 c52 -53 247
-251 434 -438 l339 -342 93 97 c69 71 104 116 132 170 35 72 37 79 37 175 0
155 -13 175 -259 424 -111 112 -217 214 -237 227 -81 52 -187 66 -288 39z"/>
<path d="M2303 3191 c-436 -440 -793 -803 -793 -808 0 -4 195 -203 433 -441
l432 -432 794 800 793 800 -70 78 c-39 42 -234 240 -434 439 l-363 363 -792
-799z"/>
<path d="M1318 2155 c-3 -6 -33 -124 -68 -263 l-63 -253 178 -182 c98 -100
197 -201 220 -225 l41 -43 245 61 c134 33 252 64 262 68 16 6 -52 79 -395 427
-228 230 -417 415 -420 410z"/>
<path d="M1092 1253 c-27 -115 -49 -209 -48 -210 2 -3 410 99 416 104 5 4
-301 313 -311 313 -3 0 -29 -93 -57 -207z"/>
</g>
</svg>
